<mxfile host="app.diagrams.net" agent="Mozilla/5.0 (Windows NT 10.0; Win64; x64) AppleWebKit/537.36 (KHTML, like Gecko) Chrome/131.0.0.0 Safari/537.36" version="24.8.6">
  <diagram name="Page-1" id="MF2260zbiOfD4v7ZFwnY">
    <mxGraphModel dx="1744" dy="856" grid="1" gridSize="10" guides="1" tooltips="1" connect="1" arrows="1" fold="1" page="1" pageScale="1" pageWidth="2336" pageHeight="1654" math="0" shadow="0">
      <root>
        <mxCell id="0" />
        <mxCell id="1" parent="0" />
        <mxCell id="5bxbunjj5vEptI5vn-1S-1" value="User TimeLines" style="shape=cylinder3;whiteSpace=wrap;html=1;boundedLbl=1;backgroundOutline=1;size=15;" vertex="1" parent="1">
          <mxGeometry x="180" y="50" width="60" height="80" as="geometry" />
        </mxCell>
        <mxCell id="5bxbunjj5vEptI5vn-1S-2" value="trends" style="shape=cylinder3;whiteSpace=wrap;html=1;boundedLbl=1;backgroundOutline=1;size=15;" vertex="1" parent="1">
          <mxGeometry x="180" y="610" width="60" height="80" as="geometry" />
        </mxCell>
        <mxCell id="5bxbunjj5vEptI5vn-1S-3" value="User Timeline&amp;nbsp;&lt;div&gt;BERT&amp;nbsp;&lt;/div&gt;&lt;div&gt;Encoding&lt;/div&gt;" style="rounded=1;whiteSpace=wrap;html=1;" vertex="1" parent="1">
          <mxGeometry x="150" y="150" width="120" height="60" as="geometry" />
        </mxCell>
        <mxCell id="5bxbunjj5vEptI5vn-1S-4" value="Trends&lt;div&gt;BERT&lt;/div&gt;&lt;div&gt;Encoding&lt;/div&gt;" style="rounded=1;whiteSpace=wrap;html=1;" vertex="1" parent="1">
          <mxGeometry x="150" y="540" width="120" height="60" as="geometry" />
        </mxCell>
        <mxCell id="5bxbunjj5vEptI5vn-1S-5" value="" style="shape=image;verticalLabelPosition=bottom;labelBackgroundColor=default;verticalAlign=top;aspect=fixed;imageAspect=0;image=data:image/png,iVBORw0KGgoAAAANSUhEUgAAAKAAAAB2CAYAAABPqJgfAAAAAXNSR0IArs4c6QAAAARnQU1BAACxjwv8YQUAAAAJcEhZcwAADsMAAA7DAcdvqGQAABk3SURBVHhe7Z0JYBTl2cf/2fvKbu77TghXA3JF7lLBA0+0KFqt+hWtUovaft+nItZ+rba09ahV29LPVrFVa2ttkdpSpSiKInIJQY4QEklCzs1mk+x9ZKfv8+4ORg0hx5Lz/YVhZndm3pmd+c/zHvM+7xMjMSAQDBGKyFwgGBKEAAVDihCgYEgRAhQMKUKAgiFFCFAwpES1Gcbv9yMUCkU+CQQ9ExMTE10BVlZWQqPR8IQFgjMRdQFu3boVkydPhlqtjnwjEHQP5ZQejye6Avzggw8wY8YMbgUFgp4gAXZ0dAxOJYQkHmL/nWmiZ4H9+3SK7C8YvQyKBXT5gvAEOrnIZFjuH1lisMUYeRX/mtZKUFAZIbIZ3579o+9UyhholAooFZGVghGHbAEHRYAnWlw4aXfDH/y0htz1oMzuhedsRkt8zqfwGikUnpMYdWolEo0apJh1MGlVUDIxqhUKLkr+J2tSCsLndKCttROmrCQYlexHB31wttfBpsxEvkWNTl87Gqqb4WKbx8QoYErPR0asKrw/guior0KjI3J2plTkpVugJdEHnWiyhaBVWtHaHkTAlIacxFjoVZ9mKJ1uGxqcMTDFxsKiV7Mz88PZaIVPaYQxPg46hRcdVhtsbU62BtCY4pGYlASzltIIwe9qQ2uLFe1e9lGlhykhGWnxeiiCXnjc7Wj3KxFjs8Gl1SMpPQcWLR115CALkG5y1NixY4fk8/kin6JPZygkOb0BqcrqlLZXNEubD9ZL75Q3S0cbOqSmDq/k8AQkf2eIbyd56qWyl5+Qvlm6VnqjKby/q3G/9OIP86VxT++VOj3NUtWmh6TlmQVSQUGBNG5CkXTjU7sku5e2DEqOxp3Sb1cWSOPHhddnrlgn/euETfKx9KWG16Rv3/yk9PgD06U5s9j6B16R9jU4+TFkWrf9SFp61yPS/++oljz8mwrp9ZWXSQ/f82tpd0NAcldtlZ5ddbW0IJfSz5Xmr7hTenZbteQOhCS/q1766LWHpDsuyuPHziu9SFr+6Cap3OGXvHV7pDc3fFO69rtrpbvZvvOXflX681F+gBFFZ2enZLfbpdOWAUmhgUCAt+3J867LXb+jbQcDyn6NzOrlJxkxvygZF0xOw9TsODBN4HizAxVsqmOWtt0TQJB9xx6v8I5fwIeOhu146ZbfYN5rlaisLMfHu5/DzF/cgBcPs318n+C51Zdg56XbUXbkOG9e+sd5z2PVr/6NGruPW2e8+3PsSXoSL28pR+VDyzEtzRhOulfU4v2nnkG9YibWvU/H/wA/n2eA828vYm99Ow6/tQEbP2zErHVl/Nh7f38r5gSewYOvHIKvE7BV2HHogBHL9lZi+z//gqvHR5IdgXQrQCZQuFwuHDt2DB9//DHKy8tx6NAhvlxWVsYn+fPRo0dhY1kBUzTfbzAhQVL2NinDjJl5CUhl2XKby8+z/NpWNyt3nu58WFatUENrUqGjpQENjTa04lysrijHHeewCtGeF3Cn94e4faaEluZGNDQ0IOWyx3Hzc5vwfpULLiYCYAEWlOQg1iBn2X1BCbVei1CnG7ZmdnybAeNvexirn1iDeaojeKdKgcPxl2BOqpMf22cej5kJ52Pqn97ATjvbnWXVloWlKEkMpzaSOa0AqY2mrq4O1dXVOHHiBGpqavjTSNPJkye5KGtra/n3DocDzJyCZb+DLkIZqpSkx+kxMcOCNIsOrZ4gyls8rCQnlzC7ooUpaQ4uuP9cPHVDCUrOmYriR95GS0sLOrydaK45CLx5Hy6Ydg6mTpmCKXy6EU9JLFdQ8erQZwn54Wqzw8b2pzRaHB74O3u6DjmYseJCuBz/wsolE1F07d34/j8/hr3DCXurFc4Dr2LTD76GuaeOvQhfXfsM3rIYoB5l9a5uBUgt1EajEZMmTcKcOXMwd+5czJ49G4sWLcKSJUtQWlqKiy++GOeeey5fn5aWhvj4eGi1Wr7vUEFH1rKKQJpZj0lpsUiNU6E55IXL4+cPRldJKI1JmLLyZVjrq1Hx0h1Q/OIajCsqwE2vNLCrwmosS3+FfY1NaLZaYT01vYRbpiXA+HmjZ9uOx5ax61JUhCKa7tmAt0+0R1Z2j2nKdfjJCzthLXsd35tow7M3zsWCm9bghQMOIO8ruOaRf+H4Z45dhi1/Wo25o8DqdaVHAWZlZXFxJSSw7C01FcnJyXw5IyMDsax2R+sSExNhMBhYbZTVyoZQfF2h09BrlMgwaGByh/BxpRUN7R5WTAgiGAhvw4rBCLjdCLBaafx530OrtQ57fnE+Nr+xAzH5M6B9vQLHWIHrVOk2FIDbHUBndxY+eTEe3LYXlW1taKPp16twUVECqwqHWPlYrsl3IsgsaDg9CZ1+HwL+AEIZ83Hfk6+h9v3ncOU5JhxtcEPpMDMr2IxG2Yqy/YKszO31BT89n1HCaSshIx6tDrHJGuRjJ2ptQRyp/gS7330dLzxDD4kX7dWb8GjRRDy5iypS1LRRjXff2IKrln0FqaU3Y8PV63DpT9+D0+UNV7Y+fArFBY/hH3UOVoU5M3FpRTAeOsoqC9U42eaHbecbeOXEYezjz2g1tq39Bn72ncfwbjUd347K8n1QBN2YveRyXLVYiUQ8h0c3lYeP3XgQf/nZI7jkhk2o4KmPIljWFDXOdjNMn2n/RHp3/a0Ss8xSTFyelHftz6THn/6GVPz0Pkny2qXaTfeE19GkM0mGdTsjOxI7pHUataSR18eslV5vcEr81zW8Jq0uvElav7VGavXzjbvl6J+vlBaXhPeftep70o/+93Lpyd+sl3Y3sJUntkj3fn3hp8dfdLN077+rwztKDdLe9fdIV5069lRp8TWvStTaQs0wf3ziW9KCH26VbOGNRyRyM8yYeRdMTTXNHV5WrnJgXAorPlj0kTWCoWBQ3wUPB+i1Hb09KUiOxYef2ODx87YUwRAzZgRIkAjTLTqU5ifi1X21CLJKgmBoGVMCJKjxOsmkxeyCJOyobIEvKCzhUDLmBEiolApkxFFnBjUqm528fCgYGsakAKklhHrV5CQa0OEJoMlBXU4EQ8GYFCBBWXGcXs1f39W0uOAWlZIhYcwKkKCsmDowUFWkoc0T/lIwqIxpARJalRKTMyw40tAOhzfynk4waIx5AdJ7Y+pZ/aVMC7ZXtCAgmmYGlTEvQILaBzPiDEgwanC4vudeLILoIgQYQa1SYFK6GTZXAC0O8tIQDAZjXIABeFrfx4YlF+Klwywr1qmQHa9HeVPHZzz4uucYNn7tKmzYXIEWz3H849brseGv+9FAHk59ogn7f/tjbHhoPfY0elD9/u/w1+cfwwf1kdWjnDEuQCU0polY/NAPsCiHXQxWIMyI0/Msuc7u6aYndVcyMft/7sfiGRkwazywHipDXXMHfMHI6l4Th4ILrsbia5eiKD4Ej/0kmuur0dabPl+jgLHRGybQjvp9f8fja57FPvZRn5COJd/9Jb4z1wivfS/+8vWfQP3oX7E8/2O8dPGrCP1gFj647xEc0yiBBffg9/dnYceKNXi+wwUPSnHHU/di6QQb3rr1QbRd9xCWznfj74u/hrobf4nrr1uIPOzHiw/9Chv3HYeNn8B4XPat27Di0nOQETyKf75ZB2v9Fhyr2IUP1PMwLRTCtNQMmIo12POHdXjlQAD5S2/BFXPzYGk/Ac3C/8byySaWjgN1Ozfj7T/sRdo9P8WSXJ74iKTH3jC0kpySmpqauM9He3s7n9fX1/OJfELIWUaeyH8kijqOMm60HNuGzeteQhwT0Zo138U3r5qE1gdvx8bj1DPZhurt76GW/H9DdpzY9gx+8mobJq9cjZtWLUX+c2tw4yXPoOWK27H63jVYPmETHt/2EaxOG+p37UR1oxP+rhXndia+B3+Mw+rJWPZtOt5qXD6hBlve3Iith+rhCzjQ8M4LeHufHxkL78YaJtiSzlpUHz0JZfYczF04Hxd9eQYuXHol5ucZ0dTShM27K+GktB0tOFZzEhvVE5CTxI824jltFkwORo2NjaiqquIecMePH8eRI0e4MxItk3MSec3RnARKaqbeu8OPIHyOZjSWW5E253ycf/5SXHzFN3DTmttwTnJkk1NIiImxorT0PFxyxcXInbIMVy4+ig/TS/Dly5bgggvOx/VXXYi68gY0e/3o9t2JPhvnXrcaX7/1Oiy7jI53KZZfNgNqdQhWcgugbRw6JCVOR+nCS3D+jPEoTKAcQwljSj4KigoxcVwOJkyagkkTJqDImArVe/tQ6SD9VaLZuhdZXz4P+X3xAh3GdCtAsmbk90siJMjhSKfTwWKxwGw2cx8Qk8nE/UZoImckynYViuFYpDTAkj4ZRYv0+OXdy7DsplW46x0PihZ/BXmWyCZdoPfExfkZyLbooFLEwZcZg1kLZiHLpGJlRMCSUACFpxOBiK/HF9Akomj2Akwo8OPAo2tx57Krcdu6v2FPFbdhEWIRa7DAqGNZfA8oLZlMkGYUm/bgpM0PZxsTvT0V86dmYLSMP9atYkhIJDby8CopKUFeXh73kBs/fjyKi4v5nNbJc3JQIoGSY9LwQwUDs2CL7noYa1dehkXpbfjDA7fhhpW3Y/3u07f5qZUK7m9czjZJ0up4BaV3nMR7D9+Pu65eid9Uq1F80QqsuGgmclP7YbKUZmQUFsCYr8Fbhw7DanejXjEPMzJHz/B33Qowhl1sEhR5wJHXm16vR1xcHBcaTSROsoDyZ5VKxfehaTii0MQidcJCLF9xPf5r1X1Yv/oqfMl4Ar/bfBA9NTsnGLVI1cfA2e7g3m29oq4ML9Ywuzv9Cqy47UZce+M1uHzRVGQnGSIb9AUlzOmFyFLnwvHyVnxkr4F3wnRkjrBxYHpiOOaZUcYD+/Ft2HTv97GtgRUjcqfiykvnoUjXiuSkeJzpXhaaWSnSF0Cb29+LtkFGhx2fNCUhq3Qp5k8rQFLHR3h+43Z8WB6uD/cVpTkDBdk66I//Da+/5cP4qZkYfh43/WcMCFDFyqh6SIEjeODOlVi58hbcfv+jeMFwNdZeWgBdZKvToWelCr1Bh+pWNwI9jnYQIWM2ri05gB0b7sG3VrLj/XwL7Lo0pLhZ7be65Qzte1okpObC1XgMT6x/GhsONLPTtyC9MAOZMxJh047D9MzRJD/2gP0fI7I8YKh5hpzWh1dZUAm1IR6JhbnQqrXIyspGTsFETF+yHBePsyBGqYclqxhFpecgjWW55sxijJs9A+nU7MbQxKYhq+hc6FUSLxcaTWakZeZhekE6UjIKUTBzGjITzbCk5CBv+jRk5eSwSowWpthkJCVlIWtCKZaeNw+lE8dhUnEestMTEZ+cjvySQuRkxTGBK9kxkpE+sQS5hdlIZhU+Y3waLEkZKMrPQ16cHjHuZjQzAfuLl+KrUxLYIzXyoYouVXLFEL29gLLeiiYHvIEQxqexCpd6MB+wAJr3v43t2z9C50V345pxo6MAOObcMgcC1YBTzXo+wCYN/TZoPiTOOuze/Dx++sftsKbMw7zsUVT7iCAE2EtoGDjqrNDc4Rs8d06FGgZzMoqnzsSM+bOQeaYC6whEZMF9gByYyk62YWK6GfFGTR/aBgWfR2TB/cDMrGBKrBaVVudnxrsW9B8hwD6Sm2hEi9MHu8sv/ImjgBBgH9GyGnBxaixO2Fw89IRgYAgB9oOilFj4WUWELKEYX2ZgCAH2k4IkE2wOH1x+Gpw98qWgzwgB9pOUWB3vfNHKyoLClbP/CAH2E40qBsmsRtzuDvCyoLCC/UMIsJ+Q9aOQYQSJUFjB/iEEOAAMWhVi9SrY3X54hRXsF90KkF6OBINB3i3f6/XyKEjUc4E+dw3VJU9RfJky4ki36Ln1C4cHE1awr3T7Kk72iqNXJSRA6vFMgqQ5QbvIvZ9pnpSUxLtg7d69mwexGa2v4k4HtQk2dXgxIdUMi0FEi+8N8qu4bgVIFo9CTlEcOLJwJEZyRKJNuwakoc8Unp/8RKjb/v79+3nkpLEmQLKAH1bZeI+Z3EQDq6CIks2ZOOO7YBIZCYk83qiTqewXQl5x5A9Cc9k3hLajOYlxLEIdVamDwsk2Ny8PfvGRFpwO0RsmilD4B4tOjbwk4yB3Wh15iN4wZ4GJaWZeGWl1io4KvUUIMIpQMO14g4aLkMacFhI8M0KAUYRG1Uo2a+ELsuyFuu6LxukzIgQYZagMaNAq0ebxh1/RRb4XdI8QYJRRMCtIHRVOOTAJK9gjQoBngTiDmgfMpp4yIv5IzwgBniXyEk1w+4KwOnyio0IPCAGeJXRqBW8PbOrwoJmJUDROd48Q4FmEojDptSq0OLxw+kQQnO4QAjyL0OvMkow4uAMhbgU7hRn8AkKAZxklu8I58XoeBszmpKxYiLArQoBnGbKC8UYt77BAPadpgCPBpwgBDgLUJENR2t3+IFrd4j1xV4QABwHqPZnIrCCFh6WRVqn7viCMEOAgoVLGYFxKLBdgbas78q1ACHAQoZ7SJEKby48qq1O0DTKEAAeZZLOOh4VtcfjQ6hojAeF6oEcBUpMB+YSQRxxN5JhEEy1Tj1bZO46WBb2DyoPjUmMRq1fzgIhjPUp7j13yySNuz5493B/E7XZzoVEQG5rL/h/0OTc3F8nJydwrbix3ye8L1F2rxuaGXq1ETqIR2jHmyNSrLvnkAUeOSIcPH+ZBCeVghTRRHDmaKKAhBSu02+3DPGjh8MKsU/ORFVy+IG+g7lUMklFIjxaQVpHlo2yWGlTliT6Ttxxlx2QBaZl8hnfu3ImZM2cKC9hLaGi3KqsLLn8Q+UlGxBnGznXrlQUksZE/sBykkMJykfslBS+kIIWyiyYJjoRI2wt6D7ULZicY+FuSapYdO719jnY94jljwaOr5es6dV0n6D86jZKLkLIhGnt6rIlwbJV8hyH0+MbqVHxEBXqWaZgPZ9/j/o9YhACHARTugeKQZMUbeGWkmolwrHTlFwIcJpAIyZckI07PKyc1TIRj4Z2xEOAwgkRIju005Js32IkTLWQJR3d2LAQ4zCDn9gSTFplxBgRCIRxvdo7qjqxCgMMQFYnQqEE2KxNSXJJauxt1bZ5R2Y9QCHCYQpaQQoNlsTIhZcvk3kk9aHwsax5NCAEOY6hMaNCoeJkwnQmxwxvAwZPt3N94tCAEOMyhtkHqR0hd+vOTTFyQB+vaw6HC/J0j/h2yEOAIgcqFlBWTs3uaRQeHN8jfnDS0eZlFHLkj9AsBjiDIGho0SmSyygmVDWk8wjZPgFvDT1qcvGfNSEMIcARC1pB6zlCjdZpZx4So5KNxVTY7cbi+gw+KNFKabYQARyhkDakTK0Vup0pKZryetx+SOMka7vqklb/SG+5lRCHAEQ7TG6+kxOrUyGBlw5xEAxdknF7DHeH3VdtxoLYNje2srOgP8tFbQ8OoPVEIcBRBg2PS6PyUNRelmnhZkbJq6vZP2TJl0VVsaujw8rcrFPWdyo3BIRSkCNMwBqDODe2eILeANEBSgFlBEh0zntxfmTrEUsM3QdaUmnpIyJSdny3kHtEDEiAl0traygu8CQkJ2LVrlxDgMIde51GnV4r4TuVDmvsC1J4YdsEgYuiPaY8+0ZxQKhRQM0GSWDVMtNSbm0RLjeW0Dd8ssnFkF75Ay9Rpme3C5zJRESC5ZVZUVHDfEIqmRM5LYzFU10iFbjxZR6pBk2UkJdBorl5/Jy8rdp5SRniBBNtVLeHl8Hddvu5COKagkVnUpFgtTNpwrEEiKgIk4dXU1PDEyAIePHhQCHCEQ2qQhfapMCRuOclaytl3kKmTREsVmi9uT4S/I6OnV6t4bZ3aMGWiIkCCvOZI5TqdjnvFiSxY0BtkAQ64Fkxec+S4LpyTBP0hqrXgbdu2YdKkSd1GzSTFk+tmNJFPPZripzRpiua5no3zJM5GuoN1n+g4NJBBVAV44MABHrz68z+A4g9TVk3WkkZbiAZ02lQJojll/9GC0qRzpREhogWlSRefnPejJRa6gfKAAdEq8lCaFBuacjQ5OPlAoTRpLCE6z673ie4brYuqAGksma4O6nLSFPya1E6O7QQ5tZOV7O/NoLScTievBFEalB5NA3ly6WJYrVZ+zpR2amoqd7rv7znK0G+n8ySR0G+mmzCQuMp0nvSAUPmJ0qK0aaCAgaRJkPDa29sjn8DTpPQH8vtJeJQuPYAEXU8yQl3vU1QF+HnoQpEoq6qq+FNFIqHP1GRDYuzvj6Mxaaj2TT+GnlS6+NnZ2QOyBHQjqR2TzpGGGqHzzcnJGdANILGUlZVxUdN50g1NT0/nN6K/0M2Ux+YhkdD1LCgoOPVw9xdqTqOHJS0tDXV1dSgsLERKSsqAcix6kGlMIdlQ0HXNzMz8zH2Kbmb/OSiLkK2iDN2IgVgqGdnS0pymaDxH8oWhc4xGUYEESBed5nJ2OdDfTr+T0iExk4Wh4k00fjudI6VJc/naDhQyDJQWnePp7tNZtYAybW1tfC6fCFmAgWQZJGqyrgRdKEqLLNdALhpdBrIAdH7yzRioVSHkN0WUHomaznUg4qa06Lc7HA7+m8m60Hyg5UA5TTpPeljoHtHDM5BrStaa0qRzlnMqylnoGssMigAFgtNxVrNggeBMCAEKhhQhQMGQIgQoGEKA/wBbbGAJADZ2cQAAAABJRU5ErkJggg==;" vertex="1" parent="1">
          <mxGeometry x="230" y="360" width="160" height="118" as="geometry" />
        </mxCell>
      </root>
    </mxGraphModel>
  </diagram>
</mxfile>
